<svg width="25" height="25" viewBox="0 0 25 25" fill="none" xmlns="http://www.w3.org/2000/svg">
<path fill-rule="evenodd" clip-rule="evenodd" d="M7.5 20H22.5C23.163 20 23.7989 19.7366 24.2678 19.2678C24.7366 18.7989 25 18.163 25 17.5V2.5C25 1.83696 24.7366 1.20107 24.2678 0.732233C23.7989 0.263392 23.163 0 22.5 0H7.5C6.83696 0 6.20107 0.263392 5.73223 0.732233C5.26339 1.20107 5 1.83696 5 2.5V17.5C5 18.163 5.26339 18.7989 5.73223 19.2678C6.20107 19.7366 6.83696 20 7.5 20ZM7.5 17.5V2.5H22.5V17.5H7.5ZM0 7.5H2.5V22.5H17.5V25H2.5C1.83696 25 1.20107 24.7366 0.732233 24.2678C0.263392 23.7989 0 23.163 0 22.5V7.5ZM21.25 15H10L12.8125 11.1112L13.75 12.0825L16.5625 8.195L21.25 15ZM12.3438 9.16625C11.5675 9.16625 10.9375 8.51375 10.9375 7.70875C10.9375 6.9025 11.5675 6.25 12.3438 6.25C13.12 6.25 13.75 6.9025 13.75 7.70875C13.75 8.51375 13.12 9.16625 12.3438 9.16625Z" fill="#9494A0"/>
</svg>
