<svg width="23" height="25" viewBox="0 0 23 25" fill="none" xmlns="http://www.w3.org/2000/svg">
<path fill-rule="evenodd" clip-rule="evenodd" d="M0 2.57546C0 1.15509 1.14617 0 2.55556 0H20.4444C21.8538 0 23 1.15509 23 2.57546V18.0282C23 19.4486 21.8538 20.6037 20.4444 20.6037H15.8623L11.5 25L7.13767 20.6037H2.55556C1.14617 20.6037 0 19.4486 0 18.0282V2.57546ZM14.8043 18.0282H20.4444V2.57546H2.55556V18.0282H8.19567L11.5 21.3583L14.8043 18.0282ZM17.8886 6.43848H5.11083V9.01394H17.8886V6.43848ZM14.0553 11.5894H5.11083V14.1649H14.0553V11.5894Z" fill="#9494A0"/>
</svg>
