<svg width="27" height="27" viewBox="0 0 27 27" fill="none" xmlns="http://www.w3.org/2000/svg">
<path d="M13.5 7.94444C11.1986 7.94444 9.33333 9.1875 9.33333 10.7222C9.33333 12.2569 11.1986 13.5 13.5 13.5C15.8014 13.5 17.6667 14.7431 17.6667 16.2778C17.6667 17.8125 15.8014 19.0556 13.5 19.0556V7.94444ZM13.5 7.94444C15.0417 7.94444 16.3889 8.50278 17.1097 9.33333L13.5 7.94444ZM13.5 7.94444V6.55556V7.94444ZM13.5 7.94444V19.0556V7.94444ZM13.5 19.0556V20.4444V19.0556ZM13.5 19.0556C11.9583 19.0556 10.6111 18.4972 9.89028 17.6667L13.5 19.0556ZM26 13.5C26 15.1415 25.6767 16.767 25.0485 18.2835C24.4203 19.8001 23.4996 21.1781 22.3388 22.3388C21.1781 23.4996 19.8001 24.4203 18.2835 25.0485C16.767 25.6767 15.1415 26 13.5 26C11.8585 26 10.233 25.6767 8.71646 25.0485C7.19989 24.4203 5.8219 23.4996 4.66116 22.3388C3.50043 21.1781 2.57969 19.8001 1.95151 18.2835C1.32332 16.767 1 15.1415 1 13.5C1 10.1848 2.31696 7.00537 4.66116 4.66117C7.00537 2.31696 10.1848 1 13.5 1C16.8152 1 19.9946 2.31696 22.3388 4.66117C24.683 7.00537 26 10.1848 26 13.5Z" stroke="#9494A0" stroke-width="2" stroke-linecap="round" stroke-linejoin="round"/>
</svg>
