<svg width="23" height="34" viewBox="0 0 23 34" fill="none" xmlns="http://www.w3.org/2000/svg">
<path d="M0.0280156 18.8473C-0.0181918 17.5606 0.00668996 16.2756 0.00668996 14.9889C0.00668996 13.8426 -0.00399236 12.6946 0.0315517 11.5483C0.0457694 10.2971 0.083095 9.04064 0.102644 7.7966C0.104421 7.6331 0.164856 7.59399 0.312364 7.60466C1.41803 7.65687 2.49497 7.9738 3.45267 8.52881C4.16615 8.94756 4.77845 9.51859 5.24589 10.2012C5.783 10.9875 6.13425 11.8857 6.27309 12.8279C6.53257 14.5073 6.42772 16.1974 6.4135 17.884C6.40817 18.6127 6.38684 19.3431 6.38684 20.0718C6.36886 20.8779 6.44703 21.6833 6.61966 22.471C6.87308 23.5553 7.39359 24.5591 8.13385 25.3909C8.98119 26.3238 10.0727 27.001 11.2848 27.3459C12.4316 27.6992 13.6486 27.7603 14.825 27.5236C15.9799 27.3204 17.039 26.7516 17.8463 25.901C18.0818 25.6495 18.0844 25.6522 18.3306 25.8983L18.3332 25.901L22.172 29.7397C22.224 29.8111 22.2836 29.8767 22.3497 29.9352C22.5559 30.0739 22.4706 30.2 22.3497 30.3387C21.8337 30.9008 21.2343 31.3804 20.5725 31.7604C19.8936 32.1898 19.1871 32.5739 18.4576 32.9103C17.3614 33.3953 16.2027 33.7243 15.0152 33.8878C14.0726 34.0159 13.1184 34.0344 12.1716 33.9428C11.2725 33.8614 10.3843 33.6857 9.52183 33.4186C8.28357 33.0367 7.10192 32.491 6.00829 31.796C5.27726 31.3448 4.6127 30.7939 4.03382 30.1592C3.33183 29.3719 2.61206 28.6059 2.0398 27.7173C1.39886 26.7268 0.913951 25.6437 0.602049 24.5059C0.369548 23.6559 0.217217 22.786 0.147074 21.9076C0.065323 20.8875 0.0635597 19.8674 0.0280156 18.8473Z" fill="#32C076"/>
<path d="M8.08052 16.2952C7.89391 16.4889 7.69843 16.6755 7.47095 16.8994L7.46917 15.3675C7.46917 14.7899 7.47093 14.2141 7.4496 13.6365C7.40158 12.5135 7.08986 11.4176 6.53968 10.4375C6.44371 10.2598 6.37974 10.0661 6.28911 9.88837C6.27312 9.86426 6.26225 9.83712 6.25717 9.80865C6.25209 9.78017 6.25289 9.75094 6.25956 9.72279C6.26622 9.69464 6.27859 9.66815 6.2959 9.64497C6.3132 9.62179 6.3351 9.60241 6.3602 9.58802C7.0122 9.04257 7.75845 8.62095 8.56214 8.34398C10.5171 7.64021 12.5484 7.50158 14.6046 7.7184C16.4492 7.89441 18.2382 8.44599 19.8616 9.33921C20.8056 9.86149 21.6576 10.5351 22.3835 11.3332L22.3848 11.3348C22.4605 11.4175 22.5125 11.4743 22.4048 11.5856C21.0897 12.9434 19.8047 14.3207 18.383 15.5772C18.0482 15.8749 18.0436 15.8705 17.7233 15.5692L17.7147 15.5612C16.7527 14.672 15.5328 14.1118 14.2314 13.9617C12.7911 13.7351 11.3162 13.99 10.0354 14.6868C9.28369 15.0991 8.67411 15.6874 8.08052 16.2952Z" fill="#32C076"/>
<path d="M3.2643 0C3.2633 0 3.26229 4.24119e-07 3.26129 1.27218e-06C3.66641 0.000979962 4.0673 0.0822406 4.44083 0.239094C4.81452 0.396018 5.1534 0.62549 5.43784 0.914224C5.72228 1.20296 5.94663 1.54522 6.09793 1.92122C6.24924 2.29723 6.32447 2.6995 6.3193 3.10477C6.30864 4.85354 4.90111 6.22022 3.10968 6.22022C1.44089 6.22022 0.0884345 4.78779 0.0884345 3.02125C0.0919869 1.33031 1.48552 0.00150185 3.26129 1.27218e-06C3.26111 8.31871e-07 3.26092 4.0781e-07 3.26074 0H3.2643Z" fill="#32C076"/>
</svg>
