<svg width="20" height="20" viewBox="0 0 20 20" fill="none" xmlns="http://www.w3.org/2000/svg">
<path d="M14 0H6C2.691 0 0 2.691 0 6V19C0 19.2652 0.105357 19.5196 0.292893 19.7071C0.48043 19.8946 0.734784 20 1 20H14C17.309 20 20 17.309 20 14V6C20 2.691 17.309 0 14 0ZM18 14C18 16.206 16.206 18 14 18H2V6C2 3.794 3.794 2 6 2H14C16.206 2 18 3.794 18 6V14Z" fill="#9494A0"/>
<path d="M7.99999 13.6H4.79999V12H7.99999V13.6ZM12.4 10.4002L4.79999 10.4V8.79997L12.4 8.80021V10.4002ZM15.2 7.19997H4.79999V5.59998H15.2V7.19997Z" fill="#9494A0"/>
<path d="M11.5936 15.0626L8.79999 12.4L9.99999 11.2L11.5936 12.8002L15.6 8.80021L16.7288 9.93381L11.5936 15.0626Z" fill="#9494A0"/>
</svg>
