<svg width="25" height="23" viewBox="0 0 25 23" fill="none" xmlns="http://www.w3.org/2000/svg">
<path d="M15.9424 8.75C17.1499 8.75 18.1299 9.73 18.1299 10.9375V16.8738C18.1299 18.3659 17.5372 19.797 16.4821 20.8521C15.4269 21.9072 13.9959 22.5 12.5037 22.5C11.0115 22.5 9.58046 21.9072 8.52533 20.8521C7.47021 19.797 6.87744 18.3659 6.87744 16.8738V10.9375C6.87744 9.73 7.85619 8.75 9.06494 8.75H15.9424ZM15.9424 10.625H9.06494C8.98206 10.625 8.90258 10.6579 8.84397 10.7165C8.78537 10.7751 8.75244 10.8546 8.75244 10.9375V16.8738C8.75244 17.8686 9.14766 18.8228 9.85116 19.5263C10.5547 20.2298 11.5088 20.625 12.5037 20.625C13.4986 20.625 14.4527 20.2298 15.1562 19.5263C15.8597 18.8228 16.2549 17.8686 16.2549 16.8738V10.9375C16.2549 10.8546 16.222 10.7751 16.1634 10.7165C16.1048 10.6579 16.0253 10.625 15.9424 10.625Z" fill="#9494A0"/>
<path d="M2.1875 8.75H6.41375C5.97275 9.28261 5.70342 9.93631 5.64125 10.625H2.1875C2.10462 10.625 2.02513 10.6579 1.96653 10.7165C1.90792 10.7751 1.875 10.8546 1.875 10.9375V14.9987C1.87492 15.4711 1.98188 15.9373 2.18784 16.3624C2.3938 16.7875 2.69341 17.1604 3.06416 17.4531C3.43492 17.7458 3.86717 17.9506 4.32846 18.0523C4.78974 18.1539 5.26807 18.1497 5.7275 18.04C5.83375 18.67 6.0275 19.2713 6.29375 19.83C5.55285 20.0282 4.77629 20.0534 4.02412 19.9035C3.27194 19.7537 2.56431 19.4328 1.95593 18.9658C1.34756 18.4988 0.854736 17.8982 0.515579 17.2103C0.176422 16.5224 1.53747e-05 15.7657 0 14.9987V10.9375C0 9.73 0.98 8.75 2.1875 8.75ZM18.5938 8.75H22.8125C24.02 8.75 25 9.73 25 10.9375V15C25.0002 15.7665 24.8241 16.5227 24.4855 17.2103C24.1468 17.8979 23.6547 18.4984 23.047 18.9655C22.4393 19.4325 21.7323 19.7536 20.9807 19.904C20.2292 20.0543 19.4531 20.0299 18.7125 19.8325C18.98 19.2725 19.1737 18.6713 19.2812 18.0413C19.7401 18.1497 20.2176 18.1529 20.6778 18.0506C21.1381 17.9484 21.5693 17.7433 21.939 17.4507C22.3088 17.1581 22.6075 16.7857 22.8129 16.3613C23.0183 15.9369 23.125 15.4715 23.125 15V10.9375C23.125 10.8546 23.0921 10.7751 23.0335 10.7165C22.9749 10.6579 22.8954 10.625 22.8125 10.625H19.3662C19.3041 9.93631 19.0348 9.28261 18.5938 8.75Z" fill="#9494A0"/>
<path d="M12.5 0C13.4946 0 14.4484 0.395088 15.1517 1.09835C15.8549 1.80161 16.25 2.75544 16.25 3.75C16.25 4.74456 15.8549 5.69839 15.1517 6.40165C14.4484 7.10491 13.4946 7.5 12.5 7.5C11.5054 7.5 10.5516 7.10491 9.84835 6.40165C9.14509 5.69839 8.75 4.74456 8.75 3.75C8.75 2.75544 9.14509 1.80161 9.84835 1.09835C10.5516 0.395088 11.5054 0 12.5 0ZM20.625 1.25C21.4538 1.25 22.2487 1.57924 22.8347 2.16529C23.4208 2.75134 23.75 3.5462 23.75 4.375C23.75 5.2038 23.4208 5.99866 22.8347 6.58471C22.2487 7.17076 21.4538 7.5 20.625 7.5C19.7962 7.5 19.0013 7.17076 18.4153 6.58471C17.8292 5.99866 17.5 5.2038 17.5 4.375C17.5 3.5462 17.8292 2.75134 18.4153 2.16529C19.0013 1.57924 19.7962 1.25 20.625 1.25ZM4.375 1.25C5.2038 1.25 5.99866 1.57924 6.58471 2.16529C7.17076 2.75134 7.5 3.5462 7.5 4.375C7.5 5.2038 7.17076 5.99866 6.58471 6.58471C5.99866 7.17076 5.2038 7.5 4.375 7.5C3.5462 7.5 2.75134 7.17076 2.16529 6.58471C1.57924 5.99866 1.25 5.2038 1.25 4.375C1.25 3.5462 1.57924 2.75134 2.16529 2.16529C2.75134 1.57924 3.5462 1.25 4.375 1.25ZM12.5 1.875C12.0027 1.875 11.5258 2.07254 11.1742 2.42417C10.8225 2.77581 10.625 3.25272 10.625 3.75C10.625 4.24728 10.8225 4.72419 11.1742 5.07583C11.5258 5.42746 12.0027 5.625 12.5 5.625C12.9973 5.625 13.4742 5.42746 13.8258 5.07583C14.1775 4.72419 14.375 4.24728 14.375 3.75C14.375 3.25272 14.1775 2.77581 13.8258 2.42417C13.4742 2.07254 12.9973 1.875 12.5 1.875ZM20.625 3.125C20.2935 3.125 19.9755 3.2567 19.7411 3.49112C19.5067 3.72554 19.375 4.04348 19.375 4.375C19.375 4.70652 19.5067 5.02446 19.7411 5.25888C19.9755 5.4933 20.2935 5.625 20.625 5.625C20.9565 5.625 21.2745 5.4933 21.5089 5.25888C21.7433 5.02446 21.875 4.70652 21.875 4.375C21.875 4.04348 21.7433 3.72554 21.5089 3.49112C21.2745 3.2567 20.9565 3.125 20.625 3.125ZM4.375 3.125C4.04348 3.125 3.72554 3.2567 3.49112 3.49112C3.2567 3.72554 3.125 4.04348 3.125 4.375C3.125 4.70652 3.2567 5.02446 3.49112 5.25888C3.72554 5.4933 4.04348 5.625 4.375 5.625C4.70652 5.625 5.02446 5.4933 5.25888 5.25888C5.4933 5.02446 5.625 4.70652 5.625 4.375C5.625 4.04348 5.4933 3.72554 5.25888 3.49112C5.02446 3.2567 4.70652 3.125 4.375 3.125Z" fill="#9494A0"/>
</svg>
